<?xml version="1.0" encoding="UTF-8" standalone="no"?>
<svg version="1.1" xmlns="http://www.w3.org/2000/svg">
<text x="66" y="45" font-family="sans-serif" font-size="12">1</text>
<text x="116" y="45" font-family="sans-serif" font-size="12">2</text>
<text x="166" y="45" font-family="sans-serif" font-size="12">3</text>
<text x="216" y="45" font-family="sans-serif" font-size="12">4</text>
<text x="266" y="45" font-family="sans-serif" font-size="12">5</text>
<text x="316" y="45" font-family="sans-serif" font-size="12">6</text>
<text x="366" y="45" font-family="sans-serif" font-size="12">7</text>
<text x="416" y="45" font-family="sans-serif" font-size="12">8</text>
<text x="466" y="45" font-family="sans-serif" font-size="12">9</text>
<text x="516" y="45" font-family="sans-serif" font-size="12">10</text>
<text x="566" y="45" font-family="sans-serif" font-size="12">11</text>
<text x="616" y="45" font-family="sans-serif" font-size="12">12</text>
<text x="10" y="75" font-family="sans-serif" font-size="12">1997</text>
<rect x="350" y="50" width="50" height="50" style="fill:blue;stroke:gray;stroke-width:1;fill-opacity:0.034482758620689655" ><title>7/1997: 1</title></rect>
<rect x="400" y="50" width="50" height="50" style="fill:blue;stroke:gray;stroke-width:1;fill-opacity:0.0" ><title>8/1997: 0</title></rect>
<rect x="450" y="50" width="50" height="50" style="fill:blue;stroke:gray;stroke-width:1;fill-opacity:0.034482758620689655" ><title>9/1997: 1</title></rect>
<rect x="500" y="50" width="50" height="50" style="fill:blue;stroke:gray;stroke-width:1;fill-opacity:0.20689655172413793" ><title>10/1997: 6</title></rect>
<rect x="550" y="50" width="50" height="50" style="fill:blue;stroke:gray;stroke-width:1;fill-opacity:0.034482758620689655" ><title>11/1997: 1</title></rect>
<rect x="600" y="50" width="50" height="50" style="fill:blue;stroke:gray;stroke-width:1;fill-opacity:0.0" ><title>12/1997: 0</title></rect>
<text x="10" y="125" font-family="sans-serif" font-size="12">1998</text>
<rect x="50" y="100" width="50" height="50" style="fill:blue;stroke:gray;stroke-width:1;fill-opacity:0.0" ><title>1/1998: 0</title></rect>
<rect x="100" y="100" width="50" height="50" style="fill:blue;stroke:gray;stroke-width:1;fill-opacity:0.0" ><title>2/1998: 0</title></rect>
<rect x="150" y="100" width="50" height="50" style="fill:blue;stroke:gray;stroke-width:1;fill-opacity:0.034482758620689655" ><title>3/1998: 1</title></rect>
<rect x="200" y="100" width="50" height="50" style="fill:blue;stroke:gray;stroke-width:1;fill-opacity:0.0" ><title>4/1998: 0</title></rect>
<rect x="250" y="100" width="50" height="50" style="fill:blue;stroke:gray;stroke-width:1;fill-opacity:0.0" ><title>5/1998: 0</title></rect>
<rect x="300" y="100" width="50" height="50" style="fill:blue;stroke:gray;stroke-width:1;fill-opacity:0.0" ><title>6/1998: 0</title></rect>
<rect x="350" y="100" width="50" height="50" style="fill:blue;stroke:gray;stroke-width:1;fill-opacity:0.0" ><title>7/1998: 0</title></rect>
<rect x="400" y="100" width="50" height="50" style="fill:blue;stroke:gray;stroke-width:1;fill-opacity:0.0" ><title>8/1998: 0</title></rect>
<rect x="450" y="100" width="50" height="50" style="fill:blue;stroke:gray;stroke-width:1;fill-opacity:0.0" ><title>9/1998: 0</title></rect>
<rect x="500" y="100" width="50" height="50" style="fill:blue;stroke:gray;stroke-width:1;fill-opacity:0.0" ><title>10/1998: 0</title></rect>
<rect x="550" y="100" width="50" height="50" style="fill:blue;stroke:gray;stroke-width:1;fill-opacity:0.0" ><title>11/1998: 0</title></rect>
<rect x="600" y="100" width="50" height="50" style="fill:blue;stroke:gray;stroke-width:1;fill-opacity:0.0" ><title>12/1998: 0</title></rect>
<text x="10" y="175" font-family="sans-serif" font-size="12">1999</text>
<rect x="50" y="150" width="50" height="50" style="fill:blue;stroke:gray;stroke-width:1;fill-opacity:0.0" ><title>1/1999: 0</title></rect>
<rect x="100" y="150" width="50" height="50" style="fill:blue;stroke:gray;stroke-width:1;fill-opacity:0.0" ><title>2/1999: 0</title></rect>
<rect x="150" y="150" width="50" height="50" style="fill:blue;stroke:gray;stroke-width:1;fill-opacity:0.0" ><title>3/1999: 0</title></rect>
<rect x="200" y="150" width="50" height="50" style="fill:blue;stroke:gray;stroke-width:1;fill-opacity:0.10344827586206896" ><title>4/1999: 3</title></rect>
<rect x="250" y="150" width="50" height="50" style="fill:blue;stroke:gray;stroke-width:1;fill-opacity:0.0" ><title>5/1999: 0</title></rect>
<rect x="300" y="150" width="50" height="50" style="fill:blue;stroke:gray;stroke-width:1;fill-opacity:0.0" ><title>6/1999: 0</title></rect>
<rect x="350" y="150" width="50" height="50" style="fill:blue;stroke:gray;stroke-width:1;fill-opacity:0.0" ><title>7/1999: 0</title></rect>
<rect x="400" y="150" width="50" height="50" style="fill:blue;stroke:gray;stroke-width:1;fill-opacity:0.0" ><title>8/1999: 0</title></rect>
<rect x="450" y="150" width="50" height="50" style="fill:blue;stroke:gray;stroke-width:1;fill-opacity:0.0" ><title>9/1999: 0</title></rect>
<rect x="500" y="150" width="50" height="50" style="fill:blue;stroke:gray;stroke-width:1;fill-opacity:0.0" ><title>10/1999: 0</title></rect>
<rect x="550" y="150" width="50" height="50" style="fill:blue;stroke:gray;stroke-width:1;fill-opacity:0.0" ><title>11/1999: 0</title></rect>
<rect x="600" y="150" width="50" height="50" style="fill:blue;stroke:gray;stroke-width:1;fill-opacity:0.0" ><title>12/1999: 0</title></rect>
<text x="10" y="225" font-family="sans-serif" font-size="12">2000</text>
<rect x="50" y="200" width="50" height="50" style="fill:blue;stroke:gray;stroke-width:1;fill-opacity:0.0" ><title>1/2000: 0</title></rect>
<rect x="100" y="200" width="50" height="50" style="fill:blue;stroke:gray;stroke-width:1;fill-opacity:0.0" ><title>2/2000: 0</title></rect>
<rect x="150" y="200" width="50" height="50" style="fill:blue;stroke:gray;stroke-width:1;fill-opacity:0.0" ><title>3/2000: 0</title></rect>
<rect x="200" y="200" width="50" height="50" style="fill:blue;stroke:gray;stroke-width:1;fill-opacity:0.0" ><title>4/2000: 0</title></rect>
<rect x="250" y="200" width="50" height="50" style="fill:blue;stroke:gray;stroke-width:1;fill-opacity:0.0" ><title>5/2000: 0</title></rect>
<rect x="300" y="200" width="50" height="50" style="fill:blue;stroke:gray;stroke-width:1;fill-opacity:0.0" ><title>6/2000: 0</title></rect>
<rect x="350" y="200" width="50" height="50" style="fill:blue;stroke:gray;stroke-width:1;fill-opacity:0.0" ><title>7/2000: 0</title></rect>
<rect x="400" y="200" width="50" height="50" style="fill:blue;stroke:gray;stroke-width:1;fill-opacity:0.0" ><title>8/2000: 0</title></rect>
<rect x="450" y="200" width="50" height="50" style="fill:blue;stroke:gray;stroke-width:1;fill-opacity:0.0" ><title>9/2000: 0</title></rect>
<rect x="500" y="200" width="50" height="50" style="fill:blue;stroke:gray;stroke-width:1;fill-opacity:0.0" ><title>10/2000: 0</title></rect>
<rect x="550" y="200" width="50" height="50" style="fill:blue;stroke:gray;stroke-width:1;fill-opacity:0.0" ><title>11/2000: 0</title></rect>
<rect x="600" y="200" width="50" height="50" style="fill:blue;stroke:gray;stroke-width:1;fill-opacity:0.0" ><title>12/2000: 0</title></rect>
<text x="10" y="275" font-family="sans-serif" font-size="12">2001</text>
<rect x="50" y="250" width="50" height="50" style="fill:blue;stroke:gray;stroke-width:1;fill-opacity:0.0" ><title>1/2001: 0</title></rect>
<rect x="100" y="250" width="50" height="50" style="fill:blue;stroke:gray;stroke-width:1;fill-opacity:0.0" ><title>2/2001: 0</title></rect>
<rect x="150" y="250" width="50" height="50" style="fill:blue;stroke:gray;stroke-width:1;fill-opacity:0.0" ><title>3/2001: 0</title></rect>
<rect x="200" y="250" width="50" height="50" style="fill:blue;stroke:gray;stroke-width:1;fill-opacity:0.0" ><title>4/2001: 0</title></rect>
<rect x="250" y="250" width="50" height="50" style="fill:blue;stroke:gray;stroke-width:1;fill-opacity:0.0" ><title>5/2001: 0</title></rect>
<rect x="300" y="250" width="50" height="50" style="fill:blue;stroke:gray;stroke-width:1;fill-opacity:0.0" ><title>6/2001: 0</title></rect>
<rect x="350" y="250" width="50" height="50" style="fill:blue;stroke:gray;stroke-width:1;fill-opacity:0.0" ><title>7/2001: 0</title></rect>
<rect x="400" y="250" width="50" height="50" style="fill:blue;stroke:gray;stroke-width:1;fill-opacity:0.0" ><title>8/2001: 0</title></rect>
<rect x="450" y="250" width="50" height="50" style="fill:blue;stroke:gray;stroke-width:1;fill-opacity:0.0" ><title>9/2001: 0</title></rect>
<rect x="500" y="250" width="50" height="50" style="fill:blue;stroke:gray;stroke-width:1;fill-opacity:0.0" ><title>10/2001: 0</title></rect>
<rect x="550" y="250" width="50" height="50" style="fill:blue;stroke:gray;stroke-width:1;fill-opacity:0.0" ><title>11/2001: 0</title></rect>
<rect x="600" y="250" width="50" height="50" style="fill:blue;stroke:gray;stroke-width:1;fill-opacity:0.0" ><title>12/2001: 0</title></rect>
<text x="10" y="325" font-family="sans-serif" font-size="12">2002</text>
<rect x="50" y="300" width="50" height="50" style="fill:blue;stroke:gray;stroke-width:1;fill-opacity:0.0" ><title>1/2002: 0</title></rect>
<rect x="100" y="300" width="50" height="50" style="fill:blue;stroke:gray;stroke-width:1;fill-opacity:0.0" ><title>2/2002: 0</title></rect>
<rect x="150" y="300" width="50" height="50" style="fill:blue;stroke:gray;stroke-width:1;fill-opacity:0.0" ><title>3/2002: 0</title></rect>
<rect x="200" y="300" width="50" height="50" style="fill:blue;stroke:gray;stroke-width:1;fill-opacity:0.0" ><title>4/2002: 0</title></rect>
<rect x="250" y="300" width="50" height="50" style="fill:blue;stroke:gray;stroke-width:1;fill-opacity:0.0" ><title>5/2002: 0</title></rect>
<rect x="300" y="300" width="50" height="50" style="fill:blue;stroke:gray;stroke-width:1;fill-opacity:0.0" ><title>6/2002: 0</title></rect>
<rect x="350" y="300" width="50" height="50" style="fill:blue;stroke:gray;stroke-width:1;fill-opacity:0.0" ><title>7/2002: 0</title></rect>
<rect x="400" y="300" width="50" height="50" style="fill:blue;stroke:gray;stroke-width:1;fill-opacity:0.0" ><title>8/2002: 0</title></rect>
<rect x="450" y="300" width="50" height="50" style="fill:blue;stroke:gray;stroke-width:1;fill-opacity:0.0" ><title>9/2002: 0</title></rect>
<rect x="500" y="300" width="50" height="50" style="fill:blue;stroke:gray;stroke-width:1;fill-opacity:0.0" ><title>10/2002: 0</title></rect>
<rect x="550" y="300" width="50" height="50" style="fill:blue;stroke:gray;stroke-width:1;fill-opacity:0.0" ><title>11/2002: 0</title></rect>
<rect x="600" y="300" width="50" height="50" style="fill:blue;stroke:gray;stroke-width:1;fill-opacity:0.0" ><title>12/2002: 0</title></rect>
<text x="10" y="375" font-family="sans-serif" font-size="12">2003</text>
<rect x="50" y="350" width="50" height="50" style="fill:blue;stroke:gray;stroke-width:1;fill-opacity:0.0" ><title>1/2003: 0</title></rect>
<rect x="100" y="350" width="50" height="50" style="fill:blue;stroke:gray;stroke-width:1;fill-opacity:0.0" ><title>2/2003: 0</title></rect>
<rect x="150" y="350" width="50" height="50" style="fill:blue;stroke:gray;stroke-width:1;fill-opacity:0.0" ><title>3/2003: 0</title></rect>
<rect x="200" y="350" width="50" height="50" style="fill:blue;stroke:gray;stroke-width:1;fill-opacity:0.0" ><title>4/2003: 0</title></rect>
<rect x="250" y="350" width="50" height="50" style="fill:blue;stroke:gray;stroke-width:1;fill-opacity:0.0" ><title>5/2003: 0</title></rect>
<rect x="300" y="350" width="50" height="50" style="fill:blue;stroke:gray;stroke-width:1;fill-opacity:0.0" ><title>6/2003: 0</title></rect>
<rect x="350" y="350" width="50" height="50" style="fill:blue;stroke:gray;stroke-width:1;fill-opacity:0.0" ><title>7/2003: 0</title></rect>
<rect x="400" y="350" width="50" height="50" style="fill:blue;stroke:gray;stroke-width:1;fill-opacity:0.0" ><title>8/2003: 0</title></rect>
<rect x="450" y="350" width="50" height="50" style="fill:blue;stroke:gray;stroke-width:1;fill-opacity:0.0" ><title>9/2003: 0</title></rect>
<rect x="500" y="350" width="50" height="50" style="fill:blue;stroke:gray;stroke-width:1;fill-opacity:0.0" ><title>10/2003: 0</title></rect>
<rect x="550" y="350" width="50" height="50" style="fill:blue;stroke:gray;stroke-width:1;fill-opacity:0.0" ><title>11/2003: 0</title></rect>
<rect x="600" y="350" width="50" height="50" style="fill:blue;stroke:gray;stroke-width:1;fill-opacity:0.0" ><title>12/2003: 0</title></rect>
<text x="10" y="425" font-family="sans-serif" font-size="12">2004</text>
<rect x="50" y="400" width="50" height="50" style="fill:blue;stroke:gray;stroke-width:1;fill-opacity:0.0" ><title>1/2004: 0</title></rect>
<rect x="100" y="400" width="50" height="50" style="fill:blue;stroke:gray;stroke-width:1;fill-opacity:0.0" ><title>2/2004: 0</title></rect>
<rect x="150" y="400" width="50" height="50" style="fill:blue;stroke:gray;stroke-width:1;fill-opacity:0.0" ><title>3/2004: 0</title></rect>
<rect x="200" y="400" width="50" height="50" style="fill:blue;stroke:gray;stroke-width:1;fill-opacity:0.0" ><title>4/2004: 0</title></rect>
<rect x="250" y="400" width="50" height="50" style="fill:blue;stroke:gray;stroke-width:1;fill-opacity:0.0" ><title>5/2004: 0</title></rect>
<rect x="300" y="400" width="50" height="50" style="fill:blue;stroke:gray;stroke-width:1;fill-opacity:0.0" ><title>6/2004: 0</title></rect>
<rect x="350" y="400" width="50" height="50" style="fill:blue;stroke:gray;stroke-width:1;fill-opacity:0.0" ><title>7/2004: 0</title></rect>
<rect x="400" y="400" width="50" height="50" style="fill:blue;stroke:gray;stroke-width:1;fill-opacity:0.0" ><title>8/2004: 0</title></rect>
<rect x="450" y="400" width="50" height="50" style="fill:blue;stroke:gray;stroke-width:1;fill-opacity:0.0" ><title>9/2004: 0</title></rect>
<rect x="500" y="400" width="50" height="50" style="fill:blue;stroke:gray;stroke-width:1;fill-opacity:0.0" ><title>10/2004: 0</title></rect>
<rect x="550" y="400" width="50" height="50" style="fill:blue;stroke:gray;stroke-width:1;fill-opacity:0.0" ><title>11/2004: 0</title></rect>
<rect x="600" y="400" width="50" height="50" style="fill:blue;stroke:gray;stroke-width:1;fill-opacity:0.0" ><title>12/2004: 0</title></rect>
<text x="10" y="475" font-family="sans-serif" font-size="12">2005</text>
<rect x="50" y="450" width="50" height="50" style="fill:blue;stroke:gray;stroke-width:1;fill-opacity:0.0" ><title>1/2005: 0</title></rect>
<rect x="100" y="450" width="50" height="50" style="fill:blue;stroke:gray;stroke-width:1;fill-opacity:0.0" ><title>2/2005: 0</title></rect>
<rect x="150" y="450" width="50" height="50" style="fill:blue;stroke:gray;stroke-width:1;fill-opacity:0.0" ><title>3/2005: 0</title></rect>
<rect x="200" y="450" width="50" height="50" style="fill:blue;stroke:gray;stroke-width:1;fill-opacity:0.0" ><title>4/2005: 0</title></rect>
<rect x="250" y="450" width="50" height="50" style="fill:blue;stroke:gray;stroke-width:1;fill-opacity:0.0" ><title>5/2005: 0</title></rect>
<rect x="300" y="450" width="50" height="50" style="fill:blue;stroke:gray;stroke-width:1;fill-opacity:0.0" ><title>6/2005: 0</title></rect>
<rect x="350" y="450" width="50" height="50" style="fill:blue;stroke:gray;stroke-width:1;fill-opacity:0.0" ><title>7/2005: 0</title></rect>
<rect x="400" y="450" width="50" height="50" style="fill:blue;stroke:gray;stroke-width:1;fill-opacity:0.0" ><title>8/2005: 0</title></rect>
<rect x="450" y="450" width="50" height="50" style="fill:blue;stroke:gray;stroke-width:1;fill-opacity:0.0" ><title>9/2005: 0</title></rect>
<rect x="500" y="450" width="50" height="50" style="fill:blue;stroke:gray;stroke-width:1;fill-opacity:0.0" ><title>10/2005: 0</title></rect>
<rect x="550" y="450" width="50" height="50" style="fill:blue;stroke:gray;stroke-width:1;fill-opacity:0.0" ><title>11/2005: 0</title></rect>
<rect x="600" y="450" width="50" height="50" style="fill:blue;stroke:gray;stroke-width:1;fill-opacity:0.0" ><title>12/2005: 0</title></rect>
<text x="10" y="525" font-family="sans-serif" font-size="12">2006</text>
<rect x="50" y="500" width="50" height="50" style="fill:blue;stroke:gray;stroke-width:1;fill-opacity:0.0" ><title>1/2006: 0</title></rect>
<rect x="100" y="500" width="50" height="50" style="fill:blue;stroke:gray;stroke-width:1;fill-opacity:0.0" ><title>2/2006: 0</title></rect>
<rect x="150" y="500" width="50" height="50" style="fill:blue;stroke:gray;stroke-width:1;fill-opacity:0.0" ><title>3/2006: 0</title></rect>
<rect x="200" y="500" width="50" height="50" style="fill:blue;stroke:gray;stroke-width:1;fill-opacity:0.0" ><title>4/2006: 0</title></rect>
<rect x="250" y="500" width="50" height="50" style="fill:blue;stroke:gray;stroke-width:1;fill-opacity:0.0" ><title>5/2006: 0</title></rect>
<rect x="300" y="500" width="50" height="50" style="fill:blue;stroke:gray;stroke-width:1;fill-opacity:0.0" ><title>6/2006: 0</title></rect>
<rect x="350" y="500" width="50" height="50" style="fill:blue;stroke:gray;stroke-width:1;fill-opacity:0.0" ><title>7/2006: 0</title></rect>
<rect x="400" y="500" width="50" height="50" style="fill:blue;stroke:gray;stroke-width:1;fill-opacity:0.0" ><title>8/2006: 0</title></rect>
<rect x="450" y="500" width="50" height="50" style="fill:blue;stroke:gray;stroke-width:1;fill-opacity:0.0" ><title>9/2006: 0</title></rect>
<rect x="500" y="500" width="50" height="50" style="fill:blue;stroke:gray;stroke-width:1;fill-opacity:0.0" ><title>10/2006: 0</title></rect>
<rect x="550" y="500" width="50" height="50" style="fill:blue;stroke:gray;stroke-width:1;fill-opacity:0.0" ><title>11/2006: 0</title></rect>
<rect x="600" y="500" width="50" height="50" style="fill:blue;stroke:gray;stroke-width:1;fill-opacity:0.0" ><title>12/2006: 0</title></rect>
<text x="10" y="575" font-family="sans-serif" font-size="12">2007</text>
<rect x="50" y="550" width="50" height="50" style="fill:blue;stroke:gray;stroke-width:1;fill-opacity:0.0" ><title>1/2007: 0</title></rect>
<rect x="100" y="550" width="50" height="50" style="fill:blue;stroke:gray;stroke-width:1;fill-opacity:0.0" ><title>2/2007: 0</title></rect>
<rect x="150" y="550" width="50" height="50" style="fill:blue;stroke:gray;stroke-width:1;fill-opacity:0.0" ><title>3/2007: 0</title></rect>
<rect x="200" y="550" width="50" height="50" style="fill:blue;stroke:gray;stroke-width:1;fill-opacity:0.0" ><title>4/2007: 0</title></rect>
<rect x="250" y="550" width="50" height="50" style="fill:blue;stroke:gray;stroke-width:1;fill-opacity:0.0" ><title>5/2007: 0</title></rect>
<rect x="300" y="550" width="50" height="50" style="fill:blue;stroke:gray;stroke-width:1;fill-opacity:0.0" ><title>6/2007: 0</title></rect>
<rect x="350" y="550" width="50" height="50" style="fill:blue;stroke:gray;stroke-width:1;fill-opacity:0.0" ><title>7/2007: 0</title></rect>
<rect x="400" y="550" width="50" height="50" style="fill:blue;stroke:gray;stroke-width:1;fill-opacity:0.034482758620689655" ><title>8/2007: 1</title></rect>
<rect x="450" y="550" width="50" height="50" style="fill:blue;stroke:gray;stroke-width:1;fill-opacity:0.034482758620689655" ><title>9/2007: 1</title></rect>
<rect x="500" y="550" width="50" height="50" style="fill:blue;stroke:gray;stroke-width:1;fill-opacity:0.10344827586206896" ><title>10/2007: 3</title></rect>
<rect x="550" y="550" width="50" height="50" style="fill:blue;stroke:gray;stroke-width:1;fill-opacity:0.06896551724137931" ><title>11/2007: 2</title></rect>
<rect x="600" y="550" width="50" height="50" style="fill:blue;stroke:gray;stroke-width:1;fill-opacity:0.06896551724137931" ><title>12/2007: 2</title></rect>
<text x="10" y="625" font-family="sans-serif" font-size="12">2008</text>
<rect x="50" y="600" width="50" height="50" style="fill:blue;stroke:gray;stroke-width:1;fill-opacity:0.3103448275862069" ><title>1/2008: 9</title></rect>
<rect x="100" y="600" width="50" height="50" style="fill:blue;stroke:gray;stroke-width:1;fill-opacity:0.034482758620689655" ><title>2/2008: 1</title></rect>
<rect x="150" y="600" width="50" height="50" style="fill:blue;stroke:gray;stroke-width:1;fill-opacity:0.10344827586206896" ><title>3/2008: 3</title></rect>
<rect x="200" y="600" width="50" height="50" style="fill:blue;stroke:gray;stroke-width:1;fill-opacity:0.10344827586206896" ><title>4/2008: 3</title></rect>
<rect x="250" y="600" width="50" height="50" style="fill:blue;stroke:gray;stroke-width:1;fill-opacity:0.06896551724137931" ><title>5/2008: 2</title></rect>
<rect x="300" y="600" width="50" height="50" style="fill:blue;stroke:gray;stroke-width:1;fill-opacity:0.034482758620689655" ><title>6/2008: 1</title></rect>
<rect x="350" y="600" width="50" height="50" style="fill:blue;stroke:gray;stroke-width:1;fill-opacity:0.0" ><title>7/2008: 0</title></rect>
<rect x="400" y="600" width="50" height="50" style="fill:blue;stroke:gray;stroke-width:1;fill-opacity:0.0" ><title>8/2008: 0</title></rect>
<rect x="450" y="600" width="50" height="50" style="fill:blue;stroke:gray;stroke-width:1;fill-opacity:0.034482758620689655" ><title>9/2008: 1</title></rect>
<rect x="500" y="600" width="50" height="50" style="fill:blue;stroke:gray;stroke-width:1;fill-opacity:0.034482758620689655" ><title>10/2008: 1</title></rect>
<rect x="550" y="600" width="50" height="50" style="fill:blue;stroke:gray;stroke-width:1;fill-opacity:0.034482758620689655" ><title>11/2008: 1</title></rect>
<rect x="600" y="600" width="50" height="50" style="fill:blue;stroke:gray;stroke-width:1;fill-opacity:0.0" ><title>12/2008: 0</title></rect>
<text x="10" y="675" font-family="sans-serif" font-size="12">2009</text>
<rect x="50" y="650" width="50" height="50" style="fill:blue;stroke:gray;stroke-width:1;fill-opacity:0.034482758620689655" ><title>1/2009: 1</title></rect>
<rect x="100" y="650" width="50" height="50" style="fill:blue;stroke:gray;stroke-width:1;fill-opacity:0.034482758620689655" ><title>2/2009: 1</title></rect>
<rect x="150" y="650" width="50" height="50" style="fill:blue;stroke:gray;stroke-width:1;fill-opacity:0.0" ><title>3/2009: 0</title></rect>
<rect x="200" y="650" width="50" height="50" style="fill:blue;stroke:gray;stroke-width:1;fill-opacity:0.06896551724137931" ><title>4/2009: 2</title></rect>
<rect x="250" y="650" width="50" height="50" style="fill:blue;stroke:gray;stroke-width:1;fill-opacity:0.0" ><title>5/2009: 0</title></rect>
<rect x="300" y="650" width="50" height="50" style="fill:blue;stroke:gray;stroke-width:1;fill-opacity:0.034482758620689655" ><title>6/2009: 1</title></rect>
<rect x="350" y="650" width="50" height="50" style="fill:blue;stroke:gray;stroke-width:1;fill-opacity:0.0" ><title>7/2009: 0</title></rect>
<rect x="400" y="650" width="50" height="50" style="fill:blue;stroke:gray;stroke-width:1;fill-opacity:0.06896551724137931" ><title>8/2009: 2</title></rect>
<rect x="450" y="650" width="50" height="50" style="fill:blue;stroke:gray;stroke-width:1;fill-opacity:0.0" ><title>9/2009: 0</title></rect>
<rect x="500" y="650" width="50" height="50" style="fill:blue;stroke:gray;stroke-width:1;fill-opacity:0.034482758620689655" ><title>10/2009: 1</title></rect>
<rect x="550" y="650" width="50" height="50" style="fill:blue;stroke:gray;stroke-width:1;fill-opacity:0.034482758620689655" ><title>11/2009: 1</title></rect>
<rect x="600" y="650" width="50" height="50" style="fill:blue;stroke:gray;stroke-width:1;fill-opacity:0.0" ><title>12/2009: 0</title></rect>
<text x="10" y="725" font-family="sans-serif" font-size="12">2010</text>
<rect x="50" y="700" width="50" height="50" style="fill:blue;stroke:gray;stroke-width:1;fill-opacity:0.0" ><title>1/2010: 0</title></rect>
<rect x="100" y="700" width="50" height="50" style="fill:blue;stroke:gray;stroke-width:1;fill-opacity:0.034482758620689655" ><title>2/2010: 1</title></rect>
<rect x="150" y="700" width="50" height="50" style="fill:blue;stroke:gray;stroke-width:1;fill-opacity:0.06896551724137931" ><title>3/2010: 2</title></rect>
<rect x="200" y="700" width="50" height="50" style="fill:blue;stroke:gray;stroke-width:1;fill-opacity:0.034482758620689655" ><title>4/2010: 1</title></rect>
<rect x="250" y="700" width="50" height="50" style="fill:blue;stroke:gray;stroke-width:1;fill-opacity:0.06896551724137931" ><title>5/2010: 2</title></rect>
<rect x="300" y="700" width="50" height="50" style="fill:blue;stroke:gray;stroke-width:1;fill-opacity:0.034482758620689655" ><title>6/2010: 1</title></rect>
<rect x="350" y="700" width="50" height="50" style="fill:blue;stroke:gray;stroke-width:1;fill-opacity:0.06896551724137931" ><title>7/2010: 2</title></rect>
<rect x="400" y="700" width="50" height="50" style="fill:blue;stroke:gray;stroke-width:1;fill-opacity:0.06896551724137931" ><title>8/2010: 2</title></rect>
<rect x="450" y="700" width="50" height="50" style="fill:blue;stroke:gray;stroke-width:1;fill-opacity:0.06896551724137931" ><title>9/2010: 2</title></rect>
<rect x="500" y="700" width="50" height="50" style="fill:blue;stroke:gray;stroke-width:1;fill-opacity:0.0" ><title>10/2010: 0</title></rect>
<rect x="550" y="700" width="50" height="50" style="fill:blue;stroke:gray;stroke-width:1;fill-opacity:0.06896551724137931" ><title>11/2010: 2</title></rect>
<rect x="600" y="700" width="50" height="50" style="fill:blue;stroke:gray;stroke-width:1;fill-opacity:0.20689655172413793" ><title>12/2010: 6</title></rect>
<text x="10" y="775" font-family="sans-serif" font-size="12">2011</text>
<rect x="50" y="750" width="50" height="50" style="fill:blue;stroke:gray;stroke-width:1;fill-opacity:0.06896551724137931" ><title>1/2011: 2</title></rect>
<rect x="100" y="750" width="50" height="50" style="fill:blue;stroke:gray;stroke-width:1;fill-opacity:0.034482758620689655" ><title>2/2011: 1</title></rect>
<rect x="150" y="750" width="50" height="50" style="fill:blue;stroke:gray;stroke-width:1;fill-opacity:0.20689655172413793" ><title>3/2011: 6</title></rect>
<rect x="200" y="750" width="50" height="50" style="fill:blue;stroke:gray;stroke-width:1;fill-opacity:0.034482758620689655" ><title>4/2011: 1</title></rect>
<rect x="250" y="750" width="50" height="50" style="fill:blue;stroke:gray;stroke-width:1;fill-opacity:0.4827586206896552" ><title>5/2011: 14</title></rect>
<rect x="300" y="750" width="50" height="50" style="fill:blue;stroke:gray;stroke-width:1;fill-opacity:0.5172413793103449" ><title>6/2011: 15</title></rect>
<rect x="350" y="750" width="50" height="50" style="fill:blue;stroke:gray;stroke-width:1;fill-opacity:0.3103448275862069" ><title>7/2011: 9</title></rect>
<rect x="400" y="750" width="50" height="50" style="fill:blue;stroke:gray;stroke-width:1;fill-opacity:0.6206896551724138" ><title>8/2011: 18</title></rect>
<rect x="450" y="750" width="50" height="50" style="fill:blue;stroke:gray;stroke-width:1;fill-opacity:0.10344827586206896" ><title>9/2011: 3</title></rect>
<rect x="500" y="750" width="50" height="50" style="fill:blue;stroke:gray;stroke-width:1;fill-opacity:0.13793103448275862" ><title>10/2011: 4</title></rect>
<rect x="550" y="750" width="50" height="50" style="fill:blue;stroke:gray;stroke-width:1;fill-opacity:0.20689655172413793" ><title>11/2011: 6</title></rect>
<rect x="600" y="750" width="50" height="50" style="fill:blue;stroke:gray;stroke-width:1;fill-opacity:0.13793103448275862" ><title>12/2011: 4</title></rect>
<text x="10" y="825" font-family="sans-serif" font-size="12">2012</text>
<rect x="50" y="800" width="50" height="50" style="fill:blue;stroke:gray;stroke-width:1;fill-opacity:0.034482758620689655" ><title>1/2012: 1</title></rect>
<rect x="100" y="800" width="50" height="50" style="fill:blue;stroke:gray;stroke-width:1;fill-opacity:0.06896551724137931" ><title>2/2012: 2</title></rect>
<rect x="150" y="800" width="50" height="50" style="fill:blue;stroke:gray;stroke-width:1;fill-opacity:0.10344827586206896" ><title>3/2012: 3</title></rect>
<rect x="200" y="800" width="50" height="50" style="fill:blue;stroke:gray;stroke-width:1;fill-opacity:0.10344827586206896" ><title>4/2012: 3</title></rect>
<rect x="250" y="800" width="50" height="50" style="fill:blue;stroke:gray;stroke-width:1;fill-opacity:0.0" ><title>5/2012: 0</title></rect>
<rect x="300" y="800" width="50" height="50" style="fill:blue;stroke:gray;stroke-width:1;fill-opacity:0.0" ><title>6/2012: 0</title></rect>
<rect x="350" y="800" width="50" height="50" style="fill:blue;stroke:gray;stroke-width:1;fill-opacity:0.3103448275862069" ><title>7/2012: 9</title></rect>
<rect x="400" y="800" width="50" height="50" style="fill:blue;stroke:gray;stroke-width:1;fill-opacity:0.13793103448275862" ><title>8/2012: 4</title></rect>
<rect x="450" y="800" width="50" height="50" style="fill:blue;stroke:gray;stroke-width:1;fill-opacity:0.2413793103448276" ><title>9/2012: 7</title></rect>
<rect x="500" y="800" width="50" height="50" style="fill:blue;stroke:gray;stroke-width:1;fill-opacity:0.3448275862068966" ><title>10/2012: 10</title></rect>
<rect x="550" y="800" width="50" height="50" style="fill:blue;stroke:gray;stroke-width:1;fill-opacity:0.3793103448275862" ><title>11/2012: 11</title></rect>
<rect x="600" y="800" width="50" height="50" style="fill:blue;stroke:gray;stroke-width:1;fill-opacity:0.27586206896551724" ><title>12/2012: 8</title></rect>
<text x="10" y="875" font-family="sans-serif" font-size="12">2013</text>
<rect x="50" y="850" width="50" height="50" style="fill:blue;stroke:gray;stroke-width:1;fill-opacity:0.41379310344827586" ><title>1/2013: 12</title></rect>
<rect x="100" y="850" width="50" height="50" style="fill:blue;stroke:gray;stroke-width:1;fill-opacity:0.27586206896551724" ><title>2/2013: 8</title></rect>
<rect x="150" y="850" width="50" height="50" style="fill:blue;stroke:gray;stroke-width:1;fill-opacity:0.27586206896551724" ><title>3/2013: 8</title></rect>
<rect x="200" y="850" width="50" height="50" style="fill:blue;stroke:gray;stroke-width:1;fill-opacity:0.5172413793103449" ><title>4/2013: 15</title></rect>
<rect x="250" y="850" width="50" height="50" style="fill:blue;stroke:gray;stroke-width:1;fill-opacity:0.20689655172413793" ><title>5/2013: 6</title></rect>
<rect x="300" y="850" width="50" height="50" style="fill:blue;stroke:gray;stroke-width:1;fill-opacity:0.06896551724137931" ><title>6/2013: 2</title></rect>
<rect x="350" y="850" width="50" height="50" style="fill:blue;stroke:gray;stroke-width:1;fill-opacity:0.1724137931034483" ><title>7/2013: 5</title></rect>
<rect x="400" y="850" width="50" height="50" style="fill:blue;stroke:gray;stroke-width:1;fill-opacity:0.13793103448275862" ><title>8/2013: 4</title></rect>
<rect x="450" y="850" width="50" height="50" style="fill:blue;stroke:gray;stroke-width:1;fill-opacity:0.13793103448275862" ><title>9/2013: 4</title></rect>
<rect x="500" y="850" width="50" height="50" style="fill:blue;stroke:gray;stroke-width:1;fill-opacity:0.20689655172413793" ><title>10/2013: 6</title></rect>
<rect x="550" y="850" width="50" height="50" style="fill:blue;stroke:gray;stroke-width:1;fill-opacity:0.1724137931034483" ><title>11/2013: 5</title></rect>
<rect x="600" y="850" width="50" height="50" style="fill:blue;stroke:gray;stroke-width:1;fill-opacity:0.2413793103448276" ><title>12/2013: 7</title></rect>
<text x="10" y="925" font-family="sans-serif" font-size="12">2014</text>
<rect x="50" y="900" width="50" height="50" style="fill:blue;stroke:gray;stroke-width:1;fill-opacity:0.20689655172413793" ><title>1/2014: 6</title></rect>
<rect x="100" y="900" width="50" height="50" style="fill:blue;stroke:gray;stroke-width:1;fill-opacity:0.5172413793103449" ><title>2/2014: 15</title></rect>
<rect x="150" y="900" width="50" height="50" style="fill:blue;stroke:gray;stroke-width:1;fill-opacity:0.3103448275862069" ><title>3/2014: 9</title></rect>
<rect x="200" y="900" width="50" height="50" style="fill:blue;stroke:gray;stroke-width:1;fill-opacity:0.4827586206896552" ><title>4/2014: 14</title></rect>
<rect x="250" y="900" width="50" height="50" style="fill:blue;stroke:gray;stroke-width:1;fill-opacity:0.6551724137931034" ><title>5/2014: 19</title></rect>
<rect x="300" y="900" width="50" height="50" style="fill:blue;stroke:gray;stroke-width:1;fill-opacity:1.0" ><title>6/2014: 29</title></rect>
<rect x="350" y="900" width="50" height="50" style="fill:blue;stroke:gray;stroke-width:1;fill-opacity:0.3448275862068966" ><title>7/2014: 10</title></rect>
<rect x="400" y="900" width="50" height="50" style="fill:blue;stroke:gray;stroke-width:1;fill-opacity:0.034482758620689655" ><title>8/2014: 1</title></rect>
<rect x="450" y="900" width="50" height="50" style="fill:blue;stroke:gray;stroke-width:1;fill-opacity:0.2413793103448276" ><title>9/2014: 7</title></rect>
<rect x="500" y="900" width="50" height="50" style="fill:blue;stroke:gray;stroke-width:1;fill-opacity:0.034482758620689655" ><title>10/2014: 1</title></rect>

</svg>
